<svg width="25" height="25" viewBox="0 0 25 25" fill="none" xmlns="http://www.w3.org/2000/svg">
<g clip-path="url(#clip0_176_3464)">
<path d="M18.953 4.75188C20.6583 6.44532 21.6336 8.73105 21.6727 11.1258C21.7118 13.5205 20.8116 15.8364 19.1625 17.5839L18.953 17.7991L14.5739 22.1472C14.0183 22.6986 13.2723 23.0198 12.4872 23.0454C11.7021 23.0711 10.9365 22.7995 10.3455 22.2855L10.1969 22.1472L5.81678 17.7981C4.07482 16.068 3.09619 13.7216 3.09619 11.275C3.09619 8.82835 4.07482 6.48192 5.81678 4.75188C7.55875 3.02185 9.92136 2.04993 12.3849 2.04993C14.8484 2.04993 17.211 3.02185 18.953 4.75188ZM12.3849 8.19998C11.9783 8.19998 11.5757 8.27952 11.2 8.43405C10.8244 8.58859 10.483 8.81509 10.1955 9.10063C9.90802 9.38617 9.67995 9.72516 9.52435 10.0982C9.36875 10.4713 9.28867 10.8712 9.28867 11.275C9.28867 11.6788 9.36875 12.0787 9.52435 12.4517C9.67995 12.8248 9.90802 13.1638 10.1955 13.4493C10.483 13.7349 10.8244 13.9614 11.2 14.1159C11.5757 14.2704 11.9783 14.35 12.3849 14.35C13.206 14.35 13.9936 14.026 14.5742 13.4493C15.1549 12.8727 15.4811 12.0905 15.4811 11.275C15.4811 10.4594 15.1549 9.6773 14.5742 9.10063C13.9936 8.52396 13.206 8.19998 12.3849 8.19998Z" fill="#FC205E"/>
</g>
<defs>
<clipPath id="clip0_176_3464">
<rect width="24.7697" height="24.6" fill="white"/>
</clipPath>
</defs>
</svg>
